{
  "accessors": [
    {
      "bufferView": 2,
      "componentType": 5126,
      "count": 65532,
      "max": [
        1.138551950454712,
        1.1479222774505615,
        2.582056760787964
      ],
      "min": [
        -1.1572924852371216,
        -1.1479222774505615,
        -1.68394136428833
      ],
      "type": "VEC3"
    },
    {
      "bufferView": 2,
      "byteOffset": 786384,
      "componentType": 5126,
      "count": 65532,
      "max": [
        1.0,
        1.0,
        0.9999993443489075
      ],
      "min": [
        -1.0,
        -1.0,
        -0.9897268414497375
      ],
      "type": "VEC3"
    },
    {
      "bufferView": 1,
      "componentType": 5126,
      "count": 65532,
      "max": [
        0.8804362416267395,
        0.9205113649368286
      ],
      "min": [
        0.00019156388589181006,
        0.00019156391499564052
      ],
      "type": "VEC2"
    },
    {
      "bufferView": 1,
      "byteOffset": 524256,
      "componentType": 5126,
      "count": 65532,
      "max": [
        0.6904298663139343,
        0.811385989189148
      ],
      "min": [
        0.3095702528953552,
        -0.1361539363861084
      ],
      "type": "VEC2"
    },
    {
      "bufferView": 0,
      "componentType": 5125,
      "count": 334377,
      "type": "SCALAR"
    },
    {
      "bufferView": 2,
      "byteOffset": 1572768,
      "componentType": 5126,
      "count": 65532,
      "max": [
        1.208549976348877,
        1.0957571268081665,
        2.240360736846924
      ],
      "min": [
        -1.227290391921997,
        -1.217919945716858,
        -1.8267359733581543
      ],
      "type": "VEC3"
    },
    {
      "bufferView": 2,
      "byteOffset": 2359152,
      "componentType": 5126,
      "count": 65532,
      "max": [
        1.0,
        1.0,
        1.0
      ],
      "min": [
        -1.0,
        -1.0,
        -1.0
      ],
      "type": "VEC3"
    },
    {
      "bufferView": 1,
      "byteOffset": 1048512,
      "componentType": 5126,
      "count": 65532,
      "max": [
        0.9798553586006165,
        0.9205105900764465
      ],
      "min": [
        0.00019156388589181006,
        0.00019156391499564052
      ],
      "type": "VEC2"
    },
    {
      "bufferView": 1,
      "byteOffset": 1572768,
      "componentType": 5126,
      "count": 65532,
      "max": [
        0.7453112006187439,
        0.7453112006187439
      ],
      "min": [
        0.2546887993812561,
        -0.1361539363861084
      ],
      "type": "VEC2"
    },
    {
      "bufferView": 0,
      "byteOffset": 1337508,
      "componentType": 5125,
      "count": 348810,
      "type": "SCALAR"
    },
    {
      "bufferView": 2,
      "byteOffset": 3145536,
      "componentType": 5126,
      "count": 65532,
      "max": [
        1.2007743120193481,
        1.2179203033447266,
        2.582056760787964
      ],
      "min": [
        -1.2272902727127075,
        -1.2179203033447266,
        -1.859917402267456
      ],
      "type": "VEC3"
    },
    {
      "bufferView": 2,
      "byteOffset": 3931920,
      "componentType": 5126,
      "count": 65532,
      "max": [
        1.0,
        1.0,
        1.0
      ],
      "min": [
        -1.0,
        -1.0,
        -1.0
      ],
      "type": "VEC3"
    },
    {
      "bufferView": 1,
      "byteOffset": 2097024,
      "componentType": 5126,
      "count": 65532,
      "max": [
        0.9998084902763367,
        0.9205113649368286
      ],
      "min": [
        0.00019156388589181006,
        0.00019156388589181006
      ],
      "type": "VEC2"
    },
    {
      "bufferView": 1,
      "byteOffset": 2621280,
      "componentType": 5126,
      "count": 65532,
      "max": [
        0.7589978575706482,
        0.811385989189148
      ],
      "min": [
        0.2410021424293518,
        -0.15469308197498322
      ],
      "type": "VEC2"
    },
    {
      "bufferView": 0,
      "byteOffset": 2732748,
      "componentType": 5125,
      "count": 350082,
      "type": "SCALAR"
    },
    {
      "bufferView": 2,
      "byteOffset": 4718304,
      "componentType": 5126,
      "count": 24794,
      "max": [
        1.1306486129760742,
        1.1400190591812134,
        2.5819711685180664
      ],
      "min": [
        -1.1493890285491943,
        -1.1400190591812134,
        -1.792647361755371
      ],
      "type": "VEC3"
    },
    {
      "bufferView": 2,
      "byteOffset": 5015832,
      "componentType": 5126,
      "count": 24794,
      "max": [
        1.0,
        1.0,
        1.0
      ],
      "min": [
        -1.0,
        -0.9999991059303284,
        -1.0
      ],
      "type": "VEC3"
    },
    {
      "bufferView": 1,
      "byteOffset": 3145536,
      "componentType": 5126,
      "count": 24794,
      "max": [
        0.9998084902763367,
        0.8464041352272034
      ],
      "min": [
        0.392267644405365,
        0.00019156388589181006
      ],
      "type": "VEC2"
    },
    {
      "bufferView": 1,
      "byteOffset": 3343888,
      "componentType": 5126,
      "count": 24794,
      "max": [
        0.7453112006187439,
        0.811385989189148
      ],
      "min": [
        0.2546887993812561,
        0.2546887993812561
      ],
      "type": "VEC2"
    },
    {
      "bufferView": 0,
      "byteOffset": 4133076,
      "componentType": 5125,
      "count": 129483,
      "type": "SCALAR"
    },
    {
      "bufferView": 2,
      "byteOffset": 5313360,
      "componentType": 5126,
      "count": 43740,
      "max": [
        1.160996437072754,
        1.169821858406067,
        1.3572735786437988
      ],
      "min": [
        -1.1788517236709595,
        -1.1698224544525146,
        -1.3612323999404907
      ],
      "type": "VEC3"
    },
    {
      "bufferView": 2,
      "byteOffset": 5838240,
      "componentType": 5126,
      "count": 43740,
      "max": [
        1.0,
        0.9999746680259705,
        0.9955154657363892
      ],
      "min": [
        -1.0,
        -0.9999746680259705,
        -0.9999920129776001
      ],
      "type": "VEC3"
    },
    {
      "bufferView": 1,
      "byteOffset": 3542240,
      "componentType": 5126,
      "count": 43740,
      "max": [
        1.002408504486084,
        0.9971963167190552
      ],
      "min": [
        0.0016568356659263372,
        0.002803802490234375
      ],
      "type": "VEC2"
    },
    {
      "bufferView": 0,
      "byteOffset": 4651008,
      "componentType": 5125,
      "count": 248832,
      "type": "SCALAR"
    },
    {
      "bufferView": 2,
      "byteOffset": 6363120,
      "componentType": 5126,
      "count": 65532,
      "max": [
        1.0228883028030396,
        1.022200107574463,
        0.5390143990516663
      ],
      "min": [
        -1.0228883028030396,
        -1.0136325359344482,
        -4.451551305351131e-08
      ],
      "type": "VEC3"
    },
    {
      "bufferView": 2,
      "byteOffset": 7149504,
      "componentType": 5126,
      "count": 65532,
      "max": [
        1.0,
        1.0,
        1.0
      ],
      "min": [
        -1.0,
        -1.0,
        -1.0
      ],
      "type": "VEC3"
    },
    {
      "bufferView": 1,
      "byteOffset": 3892160,
      "componentType": 5126,
      "count": 65532,
      "max": [
        0.0,
        0.0
      ],
      "min": [
        0.0,
        0.0
      ],
      "type": "VEC2"
    },
    {
      "bufferView": 1,
      "byteOffset": 4416416,
      "componentType": 5126,
      "count": 65532,
      "max": [
        0.9676051735877991,
        0.9676566123962402
      ],
      "min": [
        0.03239482641220093,
        0.03583833575248718
      ],
      "type": "VEC2"
    },
    {
      "bufferView": 0,
      "byteOffset": 5646336,
      "componentType": 5125,
      "count": 345159,
      "type": "SCALAR"
    },
    {
      "bufferView": 2,
      "byteOffset": 7935888,
      "componentType": 5126,
      "count": 65532,
      "max": [
        1.019261360168457,
        1.0221999883651733,
        0.5571557879447937
      ],
      "min": [
        -1.019187092781067,
        -1.022200107574463,
        0.012463279999792576
      ],
      "type": "VEC3"
    },
    {
      "bufferView": 2,
      "byteOffset": 8722272,
      "componentType": 5126,
      "count": 65532,
      "max": [
        1.0,
        1.0,
        1.0
      ],
      "min": [
        -1.0,
        -0.9999999403953552,
        -1.0
      ],
      "type": "VEC3"
    },
    {
      "bufferView": 1,
      "byteOffset": 4940672,
      "componentType": 5126,
      "count": 65532,
      "max": [
        0.0,
        0.0
      ],
      "min": [
        0.0,
        0.0
      ],
      "type": "VEC2"
    },
    {
      "bufferView": 1,
      "byteOffset": 5464928,
      "componentType": 5126,
      "count": 65532,
      "max": [
        0.9676051735877991,
        0.9676566123962402
      ],
      "min": [
        0.03252297639846802,
        0.032343149185180664
      ],
      "type": "VEC2"
    },
    {
      "bufferView": 0,
      "byteOffset": 7026972,
      "componentType": 5125,
      "count": 329139,
      "type": "SCALAR"
    },
    {
      "bufferView": 2,
      "byteOffset": 9508656,
      "componentType": 5126,
      "count": 9563,
      "max": [
        1.0097606182098389,
        1.011755108833313,
        0.47978582978248596
      ],
      "min": [
        -1.019261360168457,
        -1.0193737745285034,
        0.0188989769667387
      ],
      "type": "VEC3"
    },
    {
      "bufferView": 2,
      "byteOffset": 9623412,
      "componentType": 5126,
      "count": 9563,
      "max": [
        0.9987069368362427,
        0.7403742074966431,
        1.0
      ],
      "min": [
        -0.9999943971633911,
        -1.0,
        -1.0
      ],
      "type": "VEC3"
    },
    {
      "bufferView": 1,
      "byteOffset": 5989184,
      "componentType": 5126,
      "count": 9563,
      "max": [
        0.0,
        0.0
      ],
      "min": [
        0.0,
        0.0
      ],
      "type": "VEC2"
    },
    {
      "bufferView": 1,
      "byteOffset": 6065688,
      "componentType": 5126,
      "count": 9563,
      "max": [
        0.963386058807373,
        0.9641613960266113
      ],
      "min": [
        0.03239482641220093,
        0.032343149185180664
      ],
      "type": "VEC2"
    },
    {
      "bufferView": 0,
      "byteOffset": 8343528,
      "componentType": 5125,
      "count": 45894,
      "type": "SCALAR"
    }
  ],
  "asset": {
    "extras": {
      "author": "mr.rahul993 (https://sketchfab.com/mr.rahul993)",
      "license": "CC-BY-4.0 (http://creativecommons.org/licenses/by/4.0/)",
      "source": "https://sketchfab.com/3d-models/medicine-pill-bottle-with-label-2febdbefa1634c36b149b93cb6ea0a27",
      "title": "Medicine Pill Bottle With Label"
    },
    "generator": "Sketchfab-12.67.0",
    "version": "2.0"
  },
  "bufferViews": [
    {
      "buffer": 0,
      "byteLength": 8527104,
      "name": "floatBufferViews",
      "target": 34963
    },
    {
      "buffer": 0,
      "byteLength": 6142192,
      "byteOffset": 8527104,
      "byteStride": 8,
      "name": "floatBufferViews",
      "target": 34962
    },
    {
      "buffer": 0,
      "byteLength": 9738168,
      "byteOffset": 14669296,
      "byteStride": 12,
      "name": "floatBufferViews",
      "target": 34962
    }
  ],
  "buffers": [
    {
      "byteLength": 24407464,
      "uri": "scene.bin"
    }
  ],
  "materials": [
    {
      "doubleSided": true,
      "name": "Plastic_Glass_Shader",
      "pbrMetallicRoughness": {
        "baseColorFactor": [
          0.8,
          0.8,
          0.8,
          1.0
        ],
        "metallicFactor": 0.0,
        "roughnessFactor": 0.8040408205773457
      }
    },
    {
      "doubleSided": true,
      "name": "Material.001",
      "pbrMetallicRoughness": {
        "baseColorFactor": [
          0.8,
          0.8,
          0.8,
          1.0
        ],
        "metallicFactor": 0.0,
        "roughnessFactor": 0.7802480585972598
      }
    },
    {
      "doubleSided": true,
      "name": "Plastic.001",
      "pbrMetallicRoughness": {
        "baseColorFactor": [
          0.719135,
          0.719135,
          0.719135,
          1.0
        ],
        "metallicFactor": 0.0,
        "roughnessFactor": 0.8391965255000688
      }
    }
  ],
  "meshes": [
    {
      "name": "bottle_Plastic Glass Shader_0",
      "primitives": [
        {
          "attributes": {
            "NORMAL": 1,
            "POSITION": 0,
            "TEXCOORD_0": 2,
            "TEXCOORD_1": 3
          },
          "indices": 4,
          "material": 0,
          "mode": 4
        }
      ]
    },
    {
      "name": "bottle_Plastic Glass Shader_0",
      "primitives": [
        {
          "attributes": {
            "NORMAL": 6,
            "POSITION": 5,
            "TEXCOORD_0": 7,
            "TEXCOORD_1": 8
          },
          "indices": 9,
          "material": 0,
          "mode": 4
        }
      ]
    },
    {
      "name": "bottle_Plastic Glass Shader_0",
      "primitives": [
        {
          "attributes": {
            "NORMAL": 11,
            "POSITION": 10,
            "TEXCOORD_0": 12,
            "TEXCOORD_1": 13
          },
          "indices": 14,
          "material": 0,
          "mode": 4
        }
      ]
    },
    {
      "name": "bottle_Plastic Glass Shader_0",
      "primitives": [
        {
          "attributes": {
            "NORMAL": 16,
            "POSITION": 15,
            "TEXCOORD_0": 17,
            "TEXCOORD_1": 18
          },
          "indices": 19,
          "material": 0,
          "mode": 4
        }
      ]
    },
    {
      "name": "lable_Material.001_0",
      "primitives": [
        {
          "attributes": {
            "NORMAL": 21,
            "POSITION": 20,
            "TEXCOORD_0": 22
          },
          "indices": 23,
          "material": 1,
          "mode": 4
        }
      ]
    },
    {
      "name": "cap white.002_Plastic.001_0",
      "primitives": [
        {
          "attributes": {
            "NORMAL": 25,
            "POSITION": 24,
            "TEXCOORD_0": 26,
            "TEXCOORD_1": 27
          },
          "indices": 28,
          "material": 2,
          "mode": 4
        }
      ]
    },
    {
      "name": "cap white.002_Plastic.001_0",
      "primitives": [
        {
          "attributes": {
            "NORMAL": 30,
            "POSITION": 29,
            "TEXCOORD_0": 31,
            "TEXCOORD_1": 32
          },
          "indices": 33,
          "material": 2,
          "mode": 4
        }
      ]
    },
    {
      "name": "cap white.002_Plastic.001_0",
      "primitives": [
        {
          "attributes": {
            "NORMAL": 35,
            "POSITION": 34,
            "TEXCOORD_0": 36,
            "TEXCOORD_1": 37
          },
          "indices": 38,
          "material": 2,
          "mode": 4
        }
      ]
    }
  ],
  "nodes": [
    {
      "children": [
        1
      ],
      "matrix": [
        0.18986427783966064,
        0.0,
        0.0,
        0.0,
        0.0,
        4.2158338562283825e-17,
        -0.18986427783966064,
        0.0,
        0.0,
        0.18986427783966064,
        4.2158338562283825e-17,
        0.0,
        0.0,
        0.0,
        0.0,
        1.0
      ],
      "name": "Sketchfab_model"
    },
    {
      "children": [
        2
      ],
      "matrix": [
        0.009999999776482582,
        0.0,
        0.0,
        0.0,
        0.0,
        0.0,
        0.009999999776482582,
        0.0,
        0.0,
        -0.009999999776482582,
        0.0,
        0.0,
        0.0,
        0.0,
        0.0,
        1.0
      ],
      "name": "5eea25ea8a59446aa8255dc67a48d5bf.fbx"
    },
    {
      "children": [
        3,
        8,
        10
      ],
      "name": "RootNode"
    },
    {
      "children": [
        4,
        5,
        6,
        7
      ],
      "matrix": [
        -21.128014891974527,
        0.13965513369735746,
        -6.144503617898641,
        0.0,
        -6.145720579143883,
        -0.23888180683574708,
        21.12677002406741,
        0.0,
        0.06738160764175956,
        22.002063301739664,
        0.26837993512091973,
        0.0,
        -0.42296648025512695,
        43.186283111572266,
        0.4797016382217407,
        1.0
      ],
      "name": "bottle"
    },
    {
      "mesh": 0,
      "name": "bottle_Plastic Glass Shader_0"
    },
    {
      "mesh": 1,
      "name": "bottle_Plastic Glass Shader_0"
    },
    {
      "mesh": 2,
      "name": "bottle_Plastic Glass Shader_0"
    },
    {
      "mesh": 3,
      "name": "bottle_Plastic Glass Shader_0"
    },
    {
      "children": [
        9
      ],
      "matrix": [
        -22.17538354187672,
        0.14657795116950728,
        -6.449096327039502,
        0.0,
        -6.450375238462056,
        -0.2507239264681629,
        22.174082545936486,
        0.0,
        0.0754392623899031,
        24.633185719645173,
        0.3004742397514671,
        0.0,
        -0.42296648025512695,
        43.186283111572266,
        0.4797004163265228,
        1.0
      ],
      "name": "lable"
    },
    {
      "mesh": 4,
      "name": "lable_Material.001_0"
    },
    {
      "children": [
        11,
        12,
        13
      ],
      "matrix": [
        17.676465705530237,
        0.18473622820300173,
        -0.7824747978143677,
        0.0,
        -0.7850557373642775,
        0.2508775324057397,
        -17.675540078740077,
        0.0,
        -0.1734417429297004,
        17.691997262572496,
        0.2588144991083519,
        0.0,
        -0.6627917289733887,
        94.30107116699219,
        1.1993027925491333,
        1.0
      ],
      "name": "cap white.002"
    },
    {
      "mesh": 5,
      "name": "cap white.002_Plastic.001_0"
    },
    {
      "mesh": 6,
      "name": "cap white.002_Plastic.001_0"
    },
    {
      "mesh": 7,
      "name": "cap white.002_Plastic.001_0"
    }
  ],
  "scene": 0,
  "scenes": [
    {
      "name": "Sketchfab_Scene",
      "nodes": [
        0
      ]
    }
  ]
}
